<?xml version="1.0" encoding="utf-8"?>
<!-- Generator: Adobe Illustrator 26.3.1, SVG Export Plug-In . SVG Version: 6.00 Build 0)  -->
<svg version="1.1" id="Layer_1" xmlns="http://www.w3.org/2000/svg" xmlns:xlink="http://www.w3.org/1999/xlink" x="0px" y="0px"
	 viewBox="0 0 90 75" style="enable-background:new 0 0 90 75;" xml:space="preserve">
<style type="text/css">
	.st0{fill:#7D6394;}
	.st1{fill:#5C3977;}
</style>
<g id="Z8OKl9_00000150823026459224616320000017141270130828976781_">
	<g>
		<path class="st0" d="M74.6,31.4c1.9,3.2,3.6,6.3,5.5,9.5c-6.3,3.8-13,6.1-20.3,7.5c0,0.6,0,1.2,0,1.7c0,3.7,0,7.5,0,11.2
			c-0.1,5-4.1,9.6-9.1,10.3c-0.6,0.1-1.1,0-1.8,0c0-11.1,0-22.1,0-33.4C58.1,38.2,66.6,36,74.6,31.4z"/>
		<path class="st0" d="M30.1,48.4c-7.2-1.4-13.9-3.7-20.2-7.4c1.8-3.2,3.6-6.3,5.5-9.5c8,4.5,16.4,6.8,25.6,6.9
			c0,11.2,0,22.2,0,33.4c-3.6,0-6.4-1.5-8.5-4.2c-1.8-2.2-2.4-4.8-2.4-7.6c0-3.3,0-6.5,0-9.8C30.1,49.7,30.1,49.1,30.1,48.4z"/>
		<path class="st1" d="M48.9,30.6c0-3.6,0-7.1,0-10.8c12.4-0.5,21.9-6,28.5-16.6c3.2,1.8,6.3,3.6,9.4,5.4
			C82.7,20.2,60.7,32.9,48.9,30.6z"/>
		<path class="st1" d="M3.1,8.7c3.1-1.8,6.3-3.6,9.5-5.5c6.6,10.5,16,16,28.5,16.6c0,3.6,0,7.2,0,10.8C29.9,33.2,8.4,20.8,3.1,8.7z"
			/>
	</g>
</g>
</svg>
